<?xml version="1.0" encoding="UTF-8" standalone="no"?>
<svg
   xmlns:dc="http://purl.org/dc/elements/1.1/"
   xmlns:cc="http://creativecommons.org/ns#"
   xmlns:rdf="http://www.w3.org/1999/02/22-rdf-syntax-ns#"
   xmlns:svg="http://www.w3.org/2000/svg"
   xmlns="http://www.w3.org/2000/svg"
   xmlns:sodipodi="http://sodipodi.sourceforge.net/DTD/sodipodi-0.dtd"
   xmlns:inkscape="http://www.inkscape.org/namespaces/inkscape"
   inkscape:version="1.0beta1 (32d4812, 2019-09-19)"
   sodipodi:docname="logo_white.svg"
   id="svg846"
   viewBox="0 0 417 160"
   version="1.1"
   height="160mm"
   width="417mm">
  <sodipodi:namedview
     inkscape:current-layer="svg846"
     inkscape:window-maximized="0"
     inkscape:window-y="23"
     inkscape:window-x="2240"
     inkscape:cy="560"
     inkscape:cx="400"
     inkscape:zoom="0.35"
     showgrid="false"
     id="namedview848"
     inkscape:window-height="1209"
     inkscape:window-width="1600"
     inkscape:pageshadow="2"
     inkscape:pageopacity="0"
     guidetolerance="10"
     gridtolerance="10"
     objecttolerance="10"
     borderopacity="1"
     inkscape:document-rotation="0"
     bordercolor="#666666"
     pagecolor="#ffffff" />
  <defs
     id="defs836">
    <clipPath
       id="clipPath1117">
      <path
         id="path833"
         stroke-width=".26458px"
         stroke="#000"
         fill="none"
         d="m87.621 15.555-11.994 10.289-6.3525 83.147 136.98 31.956 234.42-21.898-7.1486-95.729z" />
    </clipPath>
  </defs>
  <metadata
     id="metadata838">
    <rdf:RDF>
      <cc:Work
         rdf:about="">
        <dc:format>image/svg+xml</dc:format>
        <dc:type
           rdf:resource="http://purl.org/dc/dcmitype/StillImage" />
        <dc:title />
      </cc:Work>
    </rdf:RDF>
  </metadata>
  <path
     id="path840"
     stroke-width="4.365"
     stroke-linejoin="round"
     stroke-linecap="round"
     stroke="#fff"
     fill="none"
     d="m9.1242 12.299 40 40v50l10 20v-70l40-40" />
  <g
     style="font-weight:300;font-size:11.74px;line-height:1.25;font-family:Raleway;letter-spacing:-6.6146px;fill:#ffffff;stroke-width:0.29351"
     clip-path="url(#clipPath1117)"
     id="text844"
     transform="matrix(.93258 0 0 1.0723 9.1242 12.299)"
     aria-label="hopper">
    <path
       id="path850"
       style="font-weight:300;font-size:119.19px;font-family:Raleway;letter-spacing:-6.6146px;fill:#ffffff;stroke-width:0.29351"
       d="m 128.7929,103.52544 h -5.9595 V 68.960336 q 0,-23.003671 -15.37551,-23.003671 -3.81408,0 -7.508967,1.43028 -3.5757,1.43028 -6.79383,4.05246 -3.098941,2.62218 -5.482741,6.19788 -2.3838,3.456511 -3.5757,7.508971 v 38.379184 h -5.9595 V 16.516735 h 5.9595 v 39.80946 q 3.81408,-7.27059 10.488721,-11.56143 6.793827,-4.29084 14.541177,-4.29084 5.12517,0 8.82006,1.90704 3.69489,1.90704 6.07869,5.48274 2.50299,3.5757 3.5757,8.70087 1.1919,5.005981 1.1919,11.323051 z" />
    <path
       id="path852"
       style="font-weight:300;font-size:119.19px;font-family:Raleway;letter-spacing:-6.6146px;fill:#ffffff;stroke-width:0.29351"
       d="m 166.1799,104.71734 q -6.55545,0 -12.15738,-2.50299 -5.48274,-2.622184 -9.5352,-7.032214 -4.05246,-4.41003 -6.31707,-10.25034 -2.26461,-5.84031 -2.26461,-12.27657 0,-6.55545 2.26461,-12.39576 2.3838,-5.840311 6.43626,-10.250341 4.05246,-4.41003 9.5352,-6.91302 5.60193,-2.62218 12.03819,-2.62218 6.43626,0 11.919,2.62218 5.48274,2.50299 9.5352,6.91302 4.17165,4.41003 6.43626,10.250341 2.3838,5.84031 2.3838,12.39576 0,6.43626 -2.3838,12.27657 -2.26461,5.84031 -6.31707,10.25034 -4.05246,4.41003 -9.65439,7.032214 -5.48274,2.50299 -11.919,2.50299 z M 141.86514,72.893606 q 0,5.48274 1.90704,10.36953 1.90704,4.7676 5.12517,8.3433 3.33732,3.5757 7.74735,5.72112 4.41003,2.02623 9.41601,2.02623 5.00598,0 9.41601,-2.02623 4.41003,-2.14542 7.74735,-5.84031 3.33732,-3.69489 5.24436,-8.46249 1.90704,-4.88679 1.90704,-10.48872 0,-5.48274 -1.90704,-10.25034 -1.90704,-4.886791 -5.24436,-8.462491 -3.33732,-3.69489 -7.74735,-5.84031 -4.29084,-2.14542 -9.29682,-2.14542 -5.00598,0 -9.41601,2.14542 -4.41003,2.14542 -7.74735,5.84031 -3.21813,3.69489 -5.24436,8.700871 -1.90704,4.88679 -1.90704,10.36953 z" />
    <path
       id="path854"
       style="font-weight:300;font-size:119.19px;font-family:Raleway;letter-spacing:-6.6146px;fill:#ffffff;stroke-width:0.29351"
       d="m 234.39241,104.71734 q -7.98573,0 -14.3028,-4.17165 -6.19788,-4.290844 -10.01196,-10.369534 v 38.736754 h -5.9595 V 41.546635 h 5.48274 v 12.39576 q 3.81408,-5.9595 10.01196,-9.65439 6.31707,-3.81408 13.46847,-3.81408 6.43626,0 11.919,2.74137 5.48274,2.74137 9.41601,7.27059 3.93327,4.41003 6.07869,10.250341 2.26461,5.84031 2.26461,11.919 0,6.43626 -2.02623,12.27657 -2.02623,5.84031 -5.84031,10.25034 -3.69489,4.41003 -8.93925,7.032214 -5.24436,2.50299 -11.56143,2.50299 z m -1.43028,-5.363554 q 5.36355,0 9.77358,-2.26461 4.41003,-2.26461 7.50897,-5.9595 3.09894,-3.81408 4.7676,-8.58168 1.66866,-4.88679 1.66866,-9.89277 0,-5.36355 -1.90704,-10.13115 -1.90704,-4.886791 -5.36355,-8.581681 -3.33732,-3.69489 -7.86654,-5.84031 -4.52922,-2.26461 -9.65439,-2.26461 -3.21813,0 -6.91302,1.43028 -3.5757,1.31109 -6.79383,3.69489 -3.21813,2.26461 -5.48274,5.24436 -2.26461,2.97975 -2.62218,6.317071 v 20.38149 q 1.54947,3.45651 3.93327,6.43626 2.3838,2.97975 5.36355,5.24436 2.97975,2.26461 6.43626,3.5757 3.45651,1.1919 7.1514,1.1919 z" />
    <path
       id="path856"
       style="font-weight:300;font-size:119.19px;font-family:Raleway;letter-spacing:-6.6146px;fill:#ffffff;stroke-width:0.29351"
       d="m 300.64202,104.71734 q -7.98573,0 -14.3028,-4.17165 -6.19788,-4.290844 -10.01196,-10.369534 v 38.736754 h -5.9595 V 41.546635 h 5.48274 v 12.39576 q 3.81408,-5.9595 10.01196,-9.65439 6.31707,-3.81408 13.46847,-3.81408 6.43626,0 11.919,2.74137 5.48274,2.74137 9.41601,7.27059 3.93327,4.41003 6.07869,10.250341 2.26461,5.84031 2.26461,11.919 0,6.43626 -2.02623,12.27657 -2.02623,5.84031 -5.84031,10.25034 -3.69489,4.41003 -8.93925,7.032214 -5.24436,2.50299 -11.56143,2.50299 z m -1.43028,-5.363554 q 5.36355,0 9.77358,-2.26461 4.41003,-2.26461 7.50897,-5.9595 3.09894,-3.81408 4.7676,-8.58168 1.66866,-4.88679 1.66866,-9.89277 0,-5.36355 -1.90704,-10.13115 -1.90704,-4.886791 -5.36355,-8.581681 -3.33732,-3.69489 -7.86654,-5.84031 -4.52922,-2.26461 -9.65439,-2.26461 -3.21813,0 -6.91302,1.43028 -3.5757,1.31109 -6.79383,3.69489 -3.21813,2.26461 -5.48274,5.24436 -2.26461,2.97975 -2.62218,6.317071 v 20.38149 q 1.54947,3.45651 3.93327,6.43626 2.3838,2.97975 5.36355,5.24436 2.97975,2.26461 6.43626,3.5757 3.45651,1.1919 7.1514,1.1919 z" />
    <path
       id="path858"
       style="font-weight:300;font-size:119.19px;font-family:Raleway;letter-spacing:-6.6146px;fill:#ffffff;stroke-width:0.29351"
       d="m 362.95834,104.71734 q -6.55545,0 -12.15738,-2.50299 -5.60193,-2.622184 -9.77358,-7.032214 -4.05246,-4.52922 -6.43626,-10.36953 -2.26461,-5.84031 -2.26461,-12.51495 0,-6.55545 2.26461,-12.27657 2.3838,-5.840311 6.43626,-10.131151 4.05246,-4.41003 9.5352,-6.91302 5.60193,-2.50299 12.03819,-2.50299 6.55545,0 12.15738,2.62218 5.60193,2.50299 9.65439,6.91302 4.05246,4.29084 6.31707,10.131151 2.26461,5.72112 2.26461,12.15738 0,0.59595 0,1.54947 0,0.83433 -0.11919,1.07271 h -54.35064 q 0.35757,5.36355 2.50299,10.01196 2.14542,4.52922 5.36355,7.86654 3.33732,3.33732 7.62816,5.24436 4.29084,1.90704 9.17763,1.90704 3.21813,0 6.31707,-0.83433 3.09894,-0.95352 5.72112,-2.50299 2.74137,-1.54947 4.7676,-3.69489 2.14542,-2.26461 3.33732,-4.88679 l 5.24436,1.43028 q -1.31109,3.33732 -3.93327,6.19788 -2.50299,2.74137 -5.9595,4.767604 -3.33732,2.02623 -7.38978,3.09894 -4.05246,1.1919 -8.3433,1.1919 z M 387.2731,70.152236 q -0.35757,-5.48274 -2.50299,-10.01196 -2.02623,-4.529221 -5.36355,-7.747351 -3.21813,-3.33732 -7.50897,-5.12517 -4.29084,-1.90704 -9.17763,-1.90704 -4.88679,0 -9.17763,1.90704 -4.29084,1.78785 -7.62816,5.12517 -3.21813,3.21813 -5.24436,7.866541 -1.90704,4.52922 -2.26461,9.89277 z" />
    <path
       id="path860"
       style="font-weight:300;font-size:119.19px;font-family:Raleway;letter-spacing:-6.6146px;fill:#ffffff;stroke-width:0.29351"
       d="m 428.9286,46.910185 q -8.3433,0.23838 -14.66037,5.00598 -6.19788,4.64841 -8.70087,12.872521 v 38.736754 h -5.9595 V 41.546635 h 5.72112 v 15.25632 q 3.21813,-6.55545 8.46249,-10.60791 5.36355,-4.17165 11.44224,-4.7676 1.1919,-0.11919 2.14542,-0.11919 0.95352,0 1.54947,0 z" />
  </g>
</svg>
